<svg xmlns="http://www.w3.org/2000/svg" width="1600" height="1000" viewBox="0 0 1600 1000">
    <defs><linearGradient id="bg" x1="0" y1="0" x2="1" y2="1"><stop stop-color="#F8FFFD"/><stop offset="0.55" stop-color="#EEF8FF"/><stop offset="1" stop-color="#FFF9EC"/></linearGradient><filter id="shadow"><feDropShadow dx="0" dy="18" stdDeviation="18" flood-color="#10304A" flood-opacity=".18"/></filter><pattern id="grid" width="64" height="64" patternUnits="userSpaceOnUse"><path d="M64 0H0V64" fill="none" stroke="#DCECEB" stroke-width="1"/></pattern></defs><rect width="1600" height="1000" rx="46" fill="url(#bg)"/><rect x="40" y="40" width="1520" height="920" rx="38" fill="url(#grid)" opacity=".55"/><path d="M1250 80 C1480 180 1510 410 1405 585 C1300 760 1135 820 970 930" fill="none" stroke="#D8B45F" stroke-width="5" opacity=".45"/><circle cx="1320" cy="210" r="150" fill="#0E8F8F" opacity=".08"/><text x="110" y="135" font-size="38" fill="#2F5B68" font-family="PingFang TC,Arial" font-weight="800" letter-spacing="4">BAOYU MEDICAL VISUAL</text><text x="110" y="220" font-size="78" fill="#0F2634" font-family="PingFang TC,Arial" font-weight="900">常見錯誤地圖</text><text x="112" y="290" font-size="36" fill="#5F7886" font-family="PingFang TC,Arial" font-weight="700">錯誤常出在延遲、品質、確認與備案</text><rect x="185" y="390" width="340" height="150" rx="28" fill="#fff" filter="url(#shadow)"/><circle cx="240" cy="465" r="34" fill="#F05A5A"/><text x="240" y="478" text-anchor="middle" font-size="38" fill="white" font-family="Arial" font-weight="900">!</text><text x="290" y="480" font-size="34" fill="#102A3A" font-family="PingFang TC" font-weight="900">呼救太慢</text><rect x="605" y="390" width="340" height="150" rx="28" fill="#fff" filter="url(#shadow)"/><circle cx="660" cy="465" r="34" fill="#F05A5A"/><text x="660" y="478" text-anchor="middle" font-size="38" fill="white" font-family="Arial" font-weight="900">!</text><text x="710" y="480" font-size="34" fill="#102A3A" font-family="PingFang TC" font-weight="900">AED 太晚</text><rect x="1025" y="390" width="340" height="150" rx="28" fill="#fff" filter="url(#shadow)"/><circle cx="1080" cy="465" r="34" fill="#F05A5A"/><text x="1080" y="478" text-anchor="middle" font-size="38" fill="white" font-family="Arial" font-weight="900">!</text><text x="1130" y="480" font-size="34" fill="#102A3A" font-family="PingFang TC" font-weight="900">按壓太淺</text><rect x="185" y="610" width="340" height="150" rx="28" fill="#fff" filter="url(#shadow)"/><circle cx="240" cy="685" r="34" fill="#F05A5A"/><text x="240" y="698" text-anchor="middle" font-size="38" fill="white" font-family="Arial" font-weight="900">!</text><text x="290" y="700" font-size="34" fill="#102A3A" font-family="PingFang TC" font-weight="900">過度通氣</text><rect x="605" y="610" width="340" height="150" rx="28" fill="#fff" filter="url(#shadow)"/><circle cx="660" cy="685" r="34" fill="#F05A5A"/><text x="660" y="698" text-anchor="middle" font-size="38" fill="white" font-family="Arial" font-weight="900">!</text><text x="710" y="700" font-size="34" fill="#102A3A" font-family="PingFang TC" font-weight="900">未確認</text><rect x="1025" y="610" width="340" height="150" rx="28" fill="#fff" filter="url(#shadow)"/><circle cx="1080" cy="685" r="34" fill="#F05A5A"/><text x="1080" y="698" text-anchor="middle" font-size="38" fill="white" font-family="Arial" font-weight="900">!</text><text x="1130" y="700" font-size="34" fill="#102A3A" font-family="PingFang TC" font-weight="900">無備案</text><rect x="108" y="855" width="1384" height="72" rx="36" fill="#FFFFFF" opacity=".88" filter="url(#shadow)"/><text x="150" y="902" font-size="32" fill="#2F5B68" font-family="PingFang TC,Arial" font-weight="800">太晚｜太淺｜過度｜未確認</text><circle cx="1425" cy="891" r="28" fill="#0E8F8F"/><text x="1411" y="904" font-size="32" fill="white" font-family="Arial" font-weight="900">10</text></svg>