<svg xmlns="http://www.w3.org/2000/svg" width="1600" height="1000" viewBox="0 0 1600 1000">
    <defs><linearGradient id="bg" x1="0" y1="0" x2="1" y2="1"><stop stop-color="#F8FFFD"/><stop offset="0.55" stop-color="#EEF8FF"/><stop offset="1" stop-color="#FFF9EC"/></linearGradient><filter id="shadow"><feDropShadow dx="0" dy="18" stdDeviation="18" flood-color="#10304A" flood-opacity=".18"/></filter><pattern id="grid" width="64" height="64" patternUnits="userSpaceOnUse"><path d="M64 0H0V64" fill="none" stroke="#DCECEB" stroke-width="1"/></pattern></defs><rect width="1600" height="1000" rx="46" fill="url(#bg)"/><rect x="40" y="40" width="1520" height="920" rx="38" fill="url(#grid)" opacity=".55"/><path d="M1250 80 C1480 180 1510 410 1405 585 C1300 760 1135 820 970 930" fill="none" stroke="#D8B45F" stroke-width="5" opacity=".45"/><circle cx="1320" cy="210" r="150" fill="#2D6CDF" opacity=".08"/><text x="110" y="135" font-size="38" fill="#2F5B68" font-family="PingFang TC,Arial" font-weight="800" letter-spacing="4">BAOYU MEDICAL VISUAL</text><text x="110" y="220" font-size="78" fill="#0F2634" font-family="PingFang TC,Arial" font-weight="900">生命鏈總覽</text><text x="112" y="290" font-size="36" fill="#5F7886" font-family="PingFang TC,Arial" font-weight="700">從現場安全到確認有效</text><path d="M435 520 C465.0 400,465.0 540,495 420" fill="none" stroke="#2D6CDF" stroke-width="10" stroke-linecap="round" opacity=".55"/><path d="M645 420 C685.0 300,685.0 660,725 540" fill="none" stroke="#2D6CDF" stroke-width="10" stroke-linecap="round" opacity=".55"/><path d="M875 540 C915.0 420,915.0 540,955 420" fill="none" stroke="#2D6CDF" stroke-width="10" stroke-linecap="round" opacity=".55"/><path d="M1105 420 C1135.0 300,1135.0 640,1165 520" fill="none" stroke="#2D6CDF" stroke-width="10" stroke-linecap="round" opacity=".55"/><circle cx="360" cy="520" r="88" fill="#fff" filter="url(#shadow)"/><circle cx="360" cy="520" r="68" fill="#2D6CDF" opacity=".13"/><text x="360" y="532" text-anchor="middle" font-size="38" fill="#102A3A" font-family="PingFang TC" font-weight="900">安全</text><circle cx="570" cy="420" r="88" fill="#fff" filter="url(#shadow)"/><circle cx="570" cy="420" r="68" fill="#2D6CDF" opacity=".13"/><text x="570" y="432" text-anchor="middle" font-size="38" fill="#102A3A" font-family="PingFang TC" font-weight="900">叫叫</text><circle cx="800" cy="540" r="88" fill="#fff" filter="url(#shadow)"/><circle cx="800" cy="540" r="68" fill="#2D6CDF" opacity=".13"/><text x="800" y="552" text-anchor="middle" font-size="38" fill="#102A3A" font-family="PingFang TC" font-weight="900">CABD</text><circle cx="1030" cy="420" r="88" fill="#fff" filter="url(#shadow)"/><circle cx="1030" cy="420" r="68" fill="#2D6CDF" opacity=".13"/><text x="1030" y="432" text-anchor="middle" font-size="38" fill="#102A3A" font-family="PingFang TC" font-weight="900">AED</text><circle cx="1240" cy="520" r="88" fill="#fff" filter="url(#shadow)"/><circle cx="1240" cy="520" r="68" fill="#2D6CDF" opacity=".13"/><text x="1240" y="532" text-anchor="middle" font-size="38" fill="#102A3A" font-family="PingFang TC" font-weight="900">確認</text><rect x="108" y="855" width="1384" height="72" rx="36" fill="#FFFFFF" opacity=".88" filter="url(#shadow)"/><text x="150" y="902" font-size="32" fill="#2F5B68" font-family="PingFang TC,Arial" font-weight="800">現場安全｜叫叫 CABD｜AED｜插管確認</text><circle cx="1425" cy="891" r="28" fill="#2D6CDF"/><text x="1411" y="904" font-size="32" fill="white" font-family="Arial" font-weight="900">1</text></svg>