<svg xmlns="http://www.w3.org/2000/svg" width="1600" height="1000" viewBox="0 0 1600 1000">
    <defs><linearGradient id="bg" x1="0" y1="0" x2="1" y2="1"><stop stop-color="#F8FFFD"/><stop offset="0.55" stop-color="#EEF8FF"/><stop offset="1" stop-color="#FFF9EC"/></linearGradient><filter id="shadow"><feDropShadow dx="0" dy="18" stdDeviation="18" flood-color="#10304A" flood-opacity=".18"/></filter><pattern id="grid" width="64" height="64" patternUnits="userSpaceOnUse"><path d="M64 0H0V64" fill="none" stroke="#DCECEB" stroke-width="1"/></pattern></defs><rect width="1600" height="1000" rx="46" fill="url(#bg)"/><rect x="40" y="40" width="1520" height="920" rx="38" fill="url(#grid)" opacity=".55"/><path d="M1250 80 C1480 180 1510 410 1405 585 C1300 760 1135 820 970 930" fill="none" stroke="#D8B45F" stroke-width="5" opacity=".45"/><circle cx="1320" cy="210" r="150" fill="#D6A94B" opacity=".08"/><text x="110" y="135" font-size="38" fill="#2F5B68" font-family="PingFang TC,Arial" font-weight="800" letter-spacing="4">BAOYU MEDICAL VISUAL</text><text x="110" y="220" font-size="78" fill="#0F2634" font-family="PingFang TC,Arial" font-weight="900">急救底層邏輯</text><text x="112" y="290" font-size="36" fill="#5F7886" font-family="PingFang TC,Arial" font-weight="700">救援者安全 + 團隊啟動 + 高價值動作</text><rect x="170" y="430" width="280" height="240" rx="34" fill="#fff" filter="url(#shadow)"/><text x="310" y="520" text-anchor="middle" font-size="62" fill="#D6A94B" font-family="PingFang TC" font-weight="900">盾</text><text x="310" y="615" text-anchor="middle" font-size="36" fill="#102A3A" font-family="PingFang TC" font-weight="900">現場安全</text><rect x="510" y="430" width="280" height="240" rx="34" fill="#fff" filter="url(#shadow)"/><text x="650" y="520" text-anchor="middle" font-size="62" fill="#D6A94B" font-family="PingFang TC" font-weight="900">鈴</text><text x="650" y="615" text-anchor="middle" font-size="36" fill="#102A3A" font-family="PingFang TC" font-weight="900">叫支援</text><rect x="850" y="430" width="280" height="240" rx="34" fill="#fff" filter="url(#shadow)"/><text x="990" y="520" text-anchor="middle" font-size="62" fill="#D6A94B" font-family="PingFang TC" font-weight="900">心</text><text x="990" y="615" text-anchor="middle" font-size="36" fill="#102A3A" font-family="PingFang TC" font-weight="900">胸外按壓</text><rect x="1190" y="430" width="280" height="240" rx="34" fill="#fff" filter="url(#shadow)"/><text x="1330" y="520" text-anchor="middle" font-size="62" fill="#D6A94B" font-family="PingFang TC" font-weight="900">電</text><text x="1330" y="615" text-anchor="middle" font-size="36" fill="#102A3A" font-family="PingFang TC" font-weight="900">AED 去顫</text><rect x="108" y="855" width="1384" height="72" rx="36" fill="#FFFFFF" opacity=".88" filter="url(#shadow)"/><text x="150" y="902" font-size="32" fill="#2F5B68" font-family="PingFang TC,Arial" font-weight="800">安全｜支援｜循環｜去顫</text><circle cx="1425" cy="891" r="28" fill="#D6A94B"/><text x="1411" y="904" font-size="32" fill="white" font-family="Arial" font-weight="900">2</text></svg>