<svg xmlns="http://www.w3.org/2000/svg" width="1600" height="1000" viewBox="0 0 1600 1000">
    <defs><linearGradient id="bg" x1="0" y1="0" x2="1" y2="1"><stop stop-color="#F8FFFD"/><stop offset="0.55" stop-color="#EEF8FF"/><stop offset="1" stop-color="#FFF9EC"/></linearGradient><filter id="shadow"><feDropShadow dx="0" dy="18" stdDeviation="18" flood-color="#10304A" flood-opacity=".18"/></filter><pattern id="grid" width="64" height="64" patternUnits="userSpaceOnUse"><path d="M64 0H0V64" fill="none" stroke="#DCECEB" stroke-width="1"/></pattern></defs><rect width="1600" height="1000" rx="46" fill="url(#bg)"/><rect x="40" y="40" width="1520" height="920" rx="38" fill="url(#grid)" opacity=".55"/><path d="M1250 80 C1480 180 1510 410 1405 585 C1300 760 1135 820 970 930" fill="none" stroke="#D8B45F" stroke-width="5" opacity=".45"/><circle cx="1320" cy="210" r="150" fill="#12A78E" opacity=".08"/><text x="110" y="135" font-size="38" fill="#2F5B68" font-family="PingFang TC,Arial" font-weight="800" letter-spacing="4">BAOYU MEDICAL VISUAL</text><text x="110" y="220" font-size="78" fill="#0F2634" font-family="PingFang TC,Arial" font-weight="900">插管成功確認</text><text x="112" y="290" font-size="36" fill="#5F7886" font-family="PingFang TC,Arial" font-weight="700">五點聽診、EtCO₂、X 光共同確認</text><path d="M780 410 C700 390 620 430 600 540 C580 650 680 740 800 700 C920 740 1020 650 1000 540 C980 430 900 390 820 410" fill="#FFFFFF" stroke="#12A78E" stroke-width="8" filter="url(#shadow)"/><circle cx="520" cy="660" r="58" fill="#12A78E" opacity=".92"/><text x="520" y="672" text-anchor="middle" font-size="30" fill="white" font-family="PingFang TC" font-weight="900">胃</text><circle cx="670" cy="500" r="58" fill="#12A78E" opacity=".92"/><text x="670" y="512" text-anchor="middle" font-size="30" fill="white" font-family="PingFang TC" font-weight="900">左肺</text><circle cx="930" cy="500" r="58" fill="#12A78E" opacity=".92"/><text x="930" y="512" text-anchor="middle" font-size="30" fill="white" font-family="PingFang TC" font-weight="900">右肺</text><circle cx="790" cy="680" r="58" fill="#12A78E" opacity=".92"/><text x="790" y="692" text-anchor="middle" font-size="30" fill="white" font-family="PingFang TC" font-weight="900">EtCO₂</text><circle cx="1080" cy="655" r="58" fill="#12A78E" opacity=".92"/><text x="1080" y="667" text-anchor="middle" font-size="30" fill="white" font-family="PingFang TC" font-weight="900">X光</text><rect x="108" y="855" width="1384" height="72" rx="36" fill="#FFFFFF" opacity=".88" filter="url(#shadow)"/><text x="150" y="902" font-size="32" fill="#2F5B68" font-family="PingFang TC,Arial" font-weight="800">胃｜雙肺｜EtCO₂｜X 光</text><circle cx="1425" cy="891" r="28" fill="#12A78E"/><text x="1411" y="904" font-size="32" fill="white" font-family="Arial" font-weight="900">8</text></svg>