<svg xmlns="http://www.w3.org/2000/svg" width="1600" height="1000" viewBox="0 0 1600 1000">
    <defs><linearGradient id="bg" x1="0" y1="0" x2="1" y2="1"><stop stop-color="#F8FFFD"/><stop offset="0.55" stop-color="#EEF8FF"/><stop offset="1" stop-color="#FFF9EC"/></linearGradient><filter id="shadow"><feDropShadow dx="0" dy="18" stdDeviation="18" flood-color="#10304A" flood-opacity=".18"/></filter><pattern id="grid" width="64" height="64" patternUnits="userSpaceOnUse"><path d="M64 0H0V64" fill="none" stroke="#DCECEB" stroke-width="1"/></pattern></defs><rect width="1600" height="1000" rx="46" fill="url(#bg)"/><rect x="40" y="40" width="1520" height="920" rx="38" fill="url(#grid)" opacity=".55"/><path d="M1250 80 C1480 180 1510 410 1405 585 C1300 760 1135 820 970 930" fill="none" stroke="#D8B45F" stroke-width="5" opacity=".45"/><circle cx="1320" cy="210" r="150" fill="#D6A94B" opacity=".08"/><text x="110" y="135" font-size="38" fill="#2F5B68" font-family="PingFang TC,Arial" font-weight="800" letter-spacing="4">BAOYU MEDICAL VISUAL</text><text x="110" y="220" font-size="78" fill="#0F2634" font-family="PingFang TC,Arial" font-weight="900">插管前判斷</text><text x="112" y="290" font-size="36" fill="#5F7886" font-family="PingFang TC,Arial" font-weight="700">需要、可執行、可確認、可維持</text><path d="M230 450 L350 385 L470 450 V610 L350 675 L230 610 Z" fill="#fff" filter="url(#shadow)"/><text x="350" y="545" text-anchor="middle" font-size="46" fill="#D6A94B" font-family="PingFang TC" font-weight="900">需要</text><path d="M535 450 L655 385 L775 450 V610 L655 675 L535 610 Z" fill="#fff" filter="url(#shadow)"/><text x="655" y="545" text-anchor="middle" font-size="46" fill="#D6A94B" font-family="PingFang TC" font-weight="900">能做</text><path d="M840 450 L960 385 L1080 450 V610 L960 675 L840 610 Z" fill="#fff" filter="url(#shadow)"/><text x="960" y="545" text-anchor="middle" font-size="46" fill="#D6A94B" font-family="PingFang TC" font-weight="900">確認</text><path d="M1145 450 L1265 385 L1385 450 V610 L1265 675 L1145 610 Z" fill="#fff" filter="url(#shadow)"/><text x="1265" y="545" text-anchor="middle" font-size="46" fill="#D6A94B" font-family="PingFang TC" font-weight="900">維持</text><rect x="108" y="855" width="1384" height="72" rx="36" fill="#FFFFFF" opacity=".88" filter="url(#shadow)"/><text x="150" y="902" font-size="32" fill="#2F5B68" font-family="PingFang TC,Arial" font-weight="800">適應症｜設備藥物｜人員｜備案</text><circle cx="1425" cy="891" r="28" fill="#D6A94B"/><text x="1411" y="904" font-size="32" fill="white" font-family="Arial" font-weight="900">7</text></svg>