<svg xmlns="http://www.w3.org/2000/svg" width="1600" height="1000" viewBox="0 0 1600 1000">
    <defs><linearGradient id="bg" x1="0" y1="0" x2="1" y2="1"><stop stop-color="#F8FFFD"/><stop offset="0.55" stop-color="#EEF8FF"/><stop offset="1" stop-color="#FFF9EC"/></linearGradient><filter id="shadow"><feDropShadow dx="0" dy="18" stdDeviation="18" flood-color="#10304A" flood-opacity=".18"/></filter><pattern id="grid" width="64" height="64" patternUnits="userSpaceOnUse"><path d="M64 0H0V64" fill="none" stroke="#DCECEB" stroke-width="1"/></pattern></defs><rect width="1600" height="1000" rx="46" fill="url(#bg)"/><rect x="40" y="40" width="1520" height="920" rx="38" fill="url(#grid)" opacity=".55"/><path d="M1250 80 C1480 180 1510 410 1405 585 C1300 760 1135 820 970 930" fill="none" stroke="#D8B45F" stroke-width="5" opacity=".45"/><circle cx="1320" cy="210" r="150" fill="#7C6BFF" opacity=".08"/><text x="110" y="135" font-size="38" fill="#2F5B68" font-family="PingFang TC,Arial" font-weight="800" letter-spacing="4">BAOYU MEDICAL VISUAL</text><text x="110" y="220" font-size="78" fill="#0F2634" font-family="PingFang TC,Arial" font-weight="900">整合復甦流程</text><text x="112" y="290" font-size="36" fill="#5F7886" font-family="PingFang TC,Arial" font-weight="700">插管要服從復甦節奏，而不是凌駕流程</text><circle cx="800" cy="350" r="82" fill="#fff" filter="url(#shadow)"/><text x="800" y="362" text-anchor="middle" font-size="34" fill="#102A3A" font-family="PingFang TC" font-weight="900">壓胸</text><circle cx="1095" cy="495" r="82" fill="#fff" filter="url(#shadow)"/><text x="1095" y="507" text-anchor="middle" font-size="34" fill="#102A3A" font-family="PingFang TC" font-weight="900">通氣</text><circle cx="982" cy="730" r="82" fill="#fff" filter="url(#shadow)"/><text x="982" y="742" text-anchor="middle" font-size="34" fill="#102A3A" font-family="PingFang TC" font-weight="900">AED</text><circle cx="618" cy="730" r="82" fill="#fff" filter="url(#shadow)"/><text x="618" y="742" text-anchor="middle" font-size="34" fill="#102A3A" font-family="PingFang TC" font-weight="900">插管備案</text><circle cx="505" cy="495" r="82" fill="#fff" filter="url(#shadow)"/><text x="505" y="507" text-anchor="middle" font-size="34" fill="#102A3A" font-family="PingFang TC" font-weight="900">記錄計時</text><circle cx="800" cy="560" r="105" fill="#7C6BFF"/><text x="800" y="575" text-anchor="middle" font-size="42" fill="white" font-family="PingFang TC" font-weight="900">不中斷</text><rect x="108" y="855" width="1384" height="72" rx="36" fill="#FFFFFF" opacity=".88" filter="url(#shadow)"/><text x="150" y="902" font-size="32" fill="#2F5B68" font-family="PingFang TC,Arial" font-weight="800">不中斷 CPR｜團隊分工｜失敗備案</text><circle cx="1425" cy="891" r="28" fill="#7C6BFF"/><text x="1411" y="904" font-size="32" fill="white" font-family="Arial" font-weight="900">9</text></svg>