<svg xmlns="http://www.w3.org/2000/svg" width="1600" height="1000" viewBox="0 0 1600 1000">
    <defs><linearGradient id="bg" x1="0" y1="0" x2="1" y2="1"><stop stop-color="#F8FFFD"/><stop offset="0.55" stop-color="#EEF8FF"/><stop offset="1" stop-color="#FFF9EC"/></linearGradient><filter id="shadow"><feDropShadow dx="0" dy="18" stdDeviation="18" flood-color="#10304A" flood-opacity=".18"/></filter><pattern id="grid" width="64" height="64" patternUnits="userSpaceOnUse"><path d="M64 0H0V64" fill="none" stroke="#DCECEB" stroke-width="1"/></pattern></defs><rect width="1600" height="1000" rx="46" fill="url(#bg)"/><rect x="40" y="40" width="1520" height="920" rx="38" fill="url(#grid)" opacity=".55"/><path d="M1250 80 C1480 180 1510 410 1405 585 C1300 760 1135 820 970 930" fill="none" stroke="#D8B45F" stroke-width="5" opacity=".45"/><circle cx="1320" cy="210" r="150" fill="#2D6CDF" opacity=".08"/><text x="110" y="135" font-size="38" fill="#2F5B68" font-family="PingFang TC,Arial" font-weight="800" letter-spacing="4">BAOYU MEDICAL VISUAL</text><text x="110" y="220" font-size="78" fill="#0F2634" font-family="PingFang TC,Arial" font-weight="900">帶走三句話</text><text x="112" y="290" font-size="36" fill="#5F7886" font-family="PingFang TC,Arial" font-weight="700">BLS 是基本功；插管是工具；確認才算完成</text><rect x="165" y="430" width="285" height="255" rx="38" fill="#fff" filter="url(#shadow)"/><text x="307" y="535" text-anchor="middle" font-size="56" fill="#2D6CDF" font-family="PingFang TC" font-weight="900">及時</text><text x="307" y="615" text-anchor="middle" font-size="32" fill="#5F7886" font-family="PingFang TC" font-weight="800">不要等</text><rect x="505" y="430" width="285" height="255" rx="38" fill="#fff" filter="url(#shadow)"/><text x="647" y="535" text-anchor="middle" font-size="56" fill="#2D6CDF" font-family="PingFang TC" font-weight="900">正確</text><text x="647" y="615" text-anchor="middle" font-size="32" fill="#5F7886" font-family="PingFang TC" font-weight="800">不要亂</text><rect x="845" y="430" width="285" height="255" rx="38" fill="#fff" filter="url(#shadow)"/><text x="987" y="535" text-anchor="middle" font-size="56" fill="#2D6CDF" font-family="PingFang TC" font-weight="900">不中斷</text><text x="987" y="615" text-anchor="middle" font-size="32" fill="#5F7886" font-family="PingFang TC" font-weight="800">不要停</text><rect x="1185" y="430" width="285" height="255" rx="38" fill="#fff" filter="url(#shadow)"/><text x="1327" y="535" text-anchor="middle" font-size="56" fill="#2D6CDF" font-family="PingFang TC" font-weight="900">確認</text><text x="1327" y="615" text-anchor="middle" font-size="32" fill="#5F7886" font-family="PingFang TC" font-weight="800">不要猜</text><rect x="108" y="855" width="1384" height="72" rx="36" fill="#FFFFFF" opacity=".88" filter="url(#shadow)"/><text x="150" y="902" font-size="32" fill="#2F5B68" font-family="PingFang TC,Arial" font-weight="800">及時｜正確｜不中斷｜可確認</text><circle cx="1425" cy="891" r="28" fill="#2D6CDF"/><text x="1411" y="904" font-size="32" fill="white" font-family="Arial" font-weight="900">11</text></svg>