<svg xmlns="http://www.w3.org/2000/svg" width="1600" height="1000" viewBox="0 0 1600 1000">
    <defs><linearGradient id="bg" x1="0" y1="0" x2="1" y2="1"><stop stop-color="#F8FFFD"/><stop offset="0.55" stop-color="#EEF8FF"/><stop offset="1" stop-color="#FFF9EC"/></linearGradient><filter id="shadow"><feDropShadow dx="0" dy="18" stdDeviation="18" flood-color="#10304A" flood-opacity=".18"/></filter><pattern id="grid" width="64" height="64" patternUnits="userSpaceOnUse"><path d="M64 0H0V64" fill="none" stroke="#DCECEB" stroke-width="1"/></pattern></defs><rect width="1600" height="1000" rx="46" fill="url(#bg)"/><rect x="40" y="40" width="1520" height="920" rx="38" fill="url(#grid)" opacity=".55"/><path d="M1250 80 C1480 180 1510 410 1405 585 C1300 760 1135 820 970 930" fill="none" stroke="#D8B45F" stroke-width="5" opacity=".45"/><circle cx="1320" cy="210" r="150" fill="#2D6CDF" opacity=".08"/><text x="110" y="135" font-size="38" fill="#2F5B68" font-family="PingFang TC,Arial" font-weight="800" letter-spacing="4">BAOYU MEDICAL VISUAL</text><text x="110" y="220" font-size="78" fill="#0F2634" font-family="PingFang TC,Arial" font-weight="900">AED 去顫</text><text x="112" y="290" font-size="36" fill="#5F7886" font-family="PingFang TC,Arial" font-weight="700">電擊後立刻續壓，不停等結果</text><rect x="440" y="390" width="460" height="270" rx="38" fill="#fff" filter="url(#shadow)"/><rect x="500" y="455" width="340" height="88" rx="18" fill="#2D6CDF" opacity=".15"/><text x="670" y="512" text-anchor="middle" font-size="42" fill="#2D6CDF" font-family="Arial" font-weight="900">AED</text><path d="M560 600 L625 600 L665 550 L715 650 L760 600 L825 600" fill="none" stroke="#E9505B" stroke-width="12" stroke-linecap="round"/><text x="1050" y="535" font-size="82" fill="#102A3A" font-family="PingFang TC" font-weight="900">整流</text><path d="M965 570 h280" stroke="#D6A94B" stroke-width="8" stroke-linecap="round"/><rect x="108" y="855" width="1384" height="72" rx="36" fill="#FFFFFF" opacity=".88" filter="url(#shadow)"/><text x="150" y="902" font-size="32" fill="#2F5B68" font-family="PingFang TC,Arial" font-weight="800">分析｜電擊｜立即 CPR</text><circle cx="1425" cy="891" r="28" fill="#2D6CDF"/><text x="1411" y="904" font-size="32" fill="white" font-family="Arial" font-weight="900">6</text></svg>