<svg xmlns="http://www.w3.org/2000/svg" width="1600" height="1000" viewBox="0 0 1600 1000">
    <defs><linearGradient id="bg" x1="0" y1="0" x2="1" y2="1"><stop stop-color="#F8FFFD"/><stop offset="0.55" stop-color="#EEF8FF"/><stop offset="1" stop-color="#FFF9EC"/></linearGradient><filter id="shadow"><feDropShadow dx="0" dy="18" stdDeviation="18" flood-color="#10304A" flood-opacity=".18"/></filter><pattern id="grid" width="64" height="64" patternUnits="userSpaceOnUse"><path d="M64 0H0V64" fill="none" stroke="#DCECEB" stroke-width="1"/></pattern></defs><rect width="1600" height="1000" rx="46" fill="url(#bg)"/><rect x="40" y="40" width="1520" height="920" rx="38" fill="url(#grid)" opacity=".55"/><path d="M1250 80 C1480 180 1510 410 1405 585 C1300 760 1135 820 970 930" fill="none" stroke="#D8B45F" stroke-width="5" opacity=".45"/><circle cx="1320" cy="210" r="150" fill="#0E8F8F" opacity=".08"/><text x="110" y="135" font-size="38" fill="#2F5B68" font-family="PingFang TC,Arial" font-weight="800" letter-spacing="4">BAOYU MEDICAL VISUAL</text><text x="110" y="220" font-size="78" fill="#0F2634" font-family="PingFang TC,Arial" font-weight="900">呼吸道與通氣</text><text x="112" y="290" font-size="36" fill="#5F7886" font-family="PingFang TC,Arial" font-weight="700">依情境選方法，用胸廓起伏判斷有效</text><path d="M680 455 C610 390 500 405 470 505 C430 640 595 725 700 650 C805 725 970 640 930 505 C900 405 790 390 720 455" fill="#DDF5F2" stroke="#0E8F8F" stroke-width="8" filter="url(#shadow)"/><path d="M700 430 V690" stroke="#0E8F8F" stroke-width="10"/><rect x="250" y="665" width="900" height="86" rx="43" fill="#fff" filter="url(#shadow)"/><text x="700" y="720" text-anchor="middle" font-size="34" fill="#102A3A" font-family="PingFang TC" font-weight="900">打開呼吸道，給有效但不過度的通氣</text><rect x="108" y="855" width="1384" height="72" rx="36" fill="#FFFFFF" opacity=".88" filter="url(#shadow)"/><text x="150" y="902" font-size="32" fill="#2F5B68" font-family="PingFang TC,Arial" font-weight="800">壓額抬下巴｜下顎推擠｜30:2</text><circle cx="1425" cy="891" r="28" fill="#0E8F8F"/><text x="1411" y="904" font-size="32" fill="white" font-family="Arial" font-weight="900">5</text></svg>